<svg width="16" height="16" viewBox="0 0 16 16" fill="none" xmlns="http://www.w3.org/2000/svg">
<g clip-path="url(#clip0)">
<path d="M7.98441 0.015625C5.43916 0.015625 3.36844 2.08638 3.36844 4.63159C3.36844 6.20813 4.16309 7.60237 5.37272 8.43547C4.24337 8.82519 3.20825 9.46894 2.33862 10.3386C0.830531 11.8467 0 13.8517 0 15.9844H1.24756C1.24756 12.2697 4.26969 9.24759 7.98441 9.24759C10.5297 9.24759 12.6004 7.17684 12.6004 4.63159C12.6004 2.08634 10.5297 0.015625 7.98441 0.015625ZM7.98441 8.00003C6.12706 8.00003 4.616 6.48897 4.616 4.63162C4.616 2.77428 6.12706 1.26319 7.98441 1.26319C9.84175 1.26319 11.3528 2.77425 11.3528 4.63162C11.3528 6.489 9.84175 8.00003 7.98441 8.00003Z" fill="white"/>
<path d="M13.3802 12.117V9.49707H12.1327V12.117H9.51276V13.3645H12.1327V15.9844H13.3802V13.3645H16.0001V12.117H13.3802Z" fill="white"/>
</g>
<defs>
<clipPath id="clip0">
<rect width="16" height="16" fill="white"/>
</clipPath>
</defs>
</svg>
