<svg width="16" height="16" viewBox="0 0 16 16" fill="none" xmlns="http://www.w3.org/2000/svg">
<path d="M4.81112 4.11118C4.81112 2.34917 6.238 0.92229 8.00001 0.92229C9.76202 0.92229 11.1889 2.34917 11.1889 4.11118C11.1889 5.87319 9.76202 7.30007 8.00001 7.30007C6.238 7.30007 4.81112 5.87319 4.81112 4.11118ZM0.922229 12.8612C0.922229 12.4718 1.11175 12.0788 1.54723 11.6769C1.98746 11.2706 2.63073 10.9041 3.39799 10.5967C4.93364 9.98156 6.7896 9.67229 8.00001 9.67229C9.21042 9.67229 11.0664 9.98156 12.602 10.5967C13.3693 10.9041 14.0126 11.2706 14.4528 11.6769C14.8883 12.0788 15.0778 12.4718 15.0778 12.8612V15.0778H0.922229V12.8612Z" stroke="white" strokeWidth="1.4"/>
</svg>
