<svg width="16" height="16" viewBox="0 0 16 16" fill="none" xmlns="http://www.w3.org/2000/svg">
<path d="M15.1399 1.20476e-06H0.875077C0.623484 -0.000474698 0.392831 0.140075 0.277822 0.363906C0.161226 0.590752 0.18169 0.863919 0.330647 1.07109L5.55667 8.43296C5.55841 8.43549 5.56032 8.43787 5.56206 8.44041C5.75195 8.69676 5.85458 9.00721 5.85522 9.32638V15.3284C5.8541 15.5063 5.9239 15.677 6.04922 15.8031C6.17454 15.9292 6.34492 15.9999 6.52259 15.9999C6.61301 15.9999 6.70232 15.9818 6.78576 15.9473L9.72238 14.8275C9.98555 14.7472 10.1602 14.4989 10.1602 14.1999V9.32638C10.1607 9.00737 10.2635 8.69676 10.4532 8.44041C10.455 8.43787 10.4569 8.43549 10.4586 8.43296L15.6845 1.07078C15.8334 0.86376 15.8539 0.590752 15.7373 0.363906C15.6223 0.140075 15.3916 -0.000474698 15.1399 1.20476e-06ZM9.79837 7.95928C9.50648 8.35538 9.34864 8.8343 9.34769 9.32638V14.1012L6.66742 15.1232V9.32638C6.66647 8.8343 6.50863 8.35538 6.21658 7.95928L1.14301 0.812205H14.8721L9.79837 7.95928Z" fill="white"/>
</svg>
