<svg width="17" height="18" viewBox="0 0 17 18" fill="none" xmlns="http://www.w3.org/2000/svg">
<path d="M13.5137 1.56738H3.48634C1.56393 1.56738 0 3.13131 0 5.05372V10.4384C0 11.9723 1.00712 13.3084 2.46651 13.736L4.15028 15.4199C4.24379 15.5133 4.37038 15.5658 4.50254 15.5658C4.63458 15.5658 4.76129 15.5133 4.85468 15.4199L6.39928 13.8752H13.5137C15.4361 13.8752 17.0001 12.3112 17.0001 10.3888V5.05372C17.0001 3.13131 15.4361 1.56738 13.5137 1.56738ZM16.004 10.3888C16.004 11.7619 14.8869 12.8791 13.5137 12.8791H6.19306C6.06102 12.8791 5.9343 12.9316 5.84092 13.025L4.50254 14.3633L3.07714 12.9379C3.0132 12.874 2.93304 12.8286 2.84523 12.8068C1.75653 12.5359 0.996098 11.562 0.996098 10.4384V5.05372C0.996098 3.68059 2.11321 2.56348 3.48634 2.56348H13.5137C14.8869 2.56348 16.004 3.68059 16.004 5.05372V10.3888Z" fill="#4D4D4D"/>
<path d="M11.6623 6.34302H5.33765C5.06255 6.34302 4.8396 6.5661 4.8396 6.84107C4.8396 7.11616 5.06255 7.33912 5.33765 7.33912H11.6623C11.9374 7.33912 12.1604 7.11616 12.1604 6.84107C12.1604 6.5661 11.9374 6.34302 11.6623 6.34302Z" fill="#4D4D4D"/>
<path d="M11.6623 8.10352H5.33765C5.06255 8.10352 4.8396 8.32647 4.8396 8.60156C4.8396 8.87666 5.06255 9.09961 5.33765 9.09961H11.6623C11.9374 9.09961 12.1604 8.87666 12.1604 8.60156C12.1604 8.32647 11.9374 8.10352 11.6623 8.10352Z" fill="#4D4D4D"/>
</svg>
