<svg height="340pt" viewBox="-1 0 340 340" width="340pt" xmlns="http://www.w3.org/2000/svg"><path d="m267 328.058594 60.441406-62.058594h-60.441406zm0 0"/><path d="m0 340h251v-82.132812c0-4.417969 4.0625-7.867188 8.480469-7.867188h78.519531v-250h-338zm53.320312-265h132.816407c4.417969 0 8 3.582031 8 8s-3.582031 8-8 8h-132.816407c-4.417968 0-8-3.582031-8-8s3.582032-8 8-8zm0 64h225.199219c4.417969 0 8 3.582031 8 8s-3.582031 8-8 8h-225.199219c-4.417968 0-8-3.582031-8-8s3.582032-8 8-8zm0 62h225.199219c4.417969 0 8 3.582031 8 8s-3.582031 8-8 8h-225.199219c-4.417968 0-8-3.582031-8-8s3.582032-8 8-8zm0 0"/></svg>