<svg height="512pt" viewBox="-4 0 512 512.00051" width="512pt" xmlns="http://www.w3.org/2000/svg"><path d="m496.660156 146.609375c-.101562-.082031-.203125-.167969-.339844-.253906l-230.871093-144.074219c-4.78125-2.980469-10.828125-3.046875-15.671875-.167969l-242.410156 144.074219c-.1875.109375-.324219.210938-.421876.304688-4.175781 2.695312-6.945312 7.378906-6.945312 12.714843v337.660157c0 8.355468 6.777344 15.132812 15.136719 15.132812h473.132812c8.359375 0 15.136719-6.777344 15.136719-15.132812v-337.660157c0-5.257812-2.679688-9.882812-6.746094-12.597656zm-63.367187 27.722656-187.132813 111.214844c-.023437.015625-.050781.015625-.074218 0l-178.21875-111.214844c-.0625-.039062-.035157-.132812.039062-.132812h365.347656c.074219 0 .101563.09375.039063.132812zm-363.175781-30.394531 187.128906-111.214844c.023437-.015625.050781-.011718.074218 0l178.21875 111.21875c.0625.035156.035157.128906-.035156.128906h-365.351562c-.070313 0-.097656-.09375-.035156-.132812zm403.089843 337.9375h-443.007812c-.039063 0-.070313-.035156-.070313-.074219v-295.507812l207.828125 129.695312c2.441407 1.519531 5.207031 2.28125 7.976563 2.28125 2.660156 0 5.320312-.703125 7.695312-2.113281l219.652344-130.546875v296.191406c0 .039063-.03125.074219-.074219.074219zm0 0"/></svg>