<svg width="17" height="16" viewBox="0 0 17 16" fill="none" xmlns="http://www.w3.org/2000/svg">
<path d="M12.0986 9.66667H11.38L11.1253 9.44167C12.0167 8.49167 12.5534 7.25833 12.5534 5.91667C12.5534 2.925 9.90648 0.5 6.64107 0.5C3.37566 0.5 0.72876 2.925 0.72876 5.91667C0.72876 8.90833 3.37566 11.3333 6.64107 11.3333C8.1055 11.3333 9.45169 10.8417 10.4886 10.025L10.7342 10.2583V10.9167L15.2821 15.075L16.6374 13.8333L12.0986 9.66667ZM6.64107 9.66667C4.3762 9.66667 2.54793 7.99167 2.54793 5.91667C2.54793 3.84167 4.3762 2.16667 6.64107 2.16667C8.90594 2.16667 10.7342 3.84167 10.7342 5.91667C10.7342 7.99167 8.90594 9.66667 6.64107 9.66667Z" fill="#C2CFE0"/>
</svg>
