<svg width="19" height="19" viewBox="0 0 19 19" fill="none" xmlns="http://www.w3.org/2000/svg">
<path d="M16.2168 9.95099H14.3569C14.1038 9.95099 13.8588 9.98557 13.6255 10.0492C13.1654 9.14475 12.2261 8.52332 11.1438 8.52332H7.85624C6.77387 8.52332 5.83456 9.14475 5.37448 10.0492C5.14124 9.98557 4.89617 9.95099 4.64305 9.95099H2.7832C1.24854 9.95099 0 11.1995 0 12.7342V15.7073C0 16.6281 0.749127 17.3772 1.66992 17.3772H17.3301C18.2509 17.3772 19 16.6281 19 15.7073V12.7342C19 11.1995 17.7515 9.95099 16.2168 9.95099ZM5.07304 11.3066V16.264H1.66992C1.36299 16.264 1.11328 16.0143 1.11328 15.7074V12.7342C1.11328 11.8134 1.86241 11.0643 2.7832 11.0643H4.64305C4.79416 11.0643 4.94048 11.0848 5.07979 11.1226C5.07578 11.1835 5.07304 11.2448 5.07304 11.3066ZM12.8137 16.264H6.18632V11.3066C6.18632 10.3858 6.93545 9.63663 7.85624 9.63663H11.1438C12.0646 9.63663 12.8137 10.3858 12.8137 11.3066V16.264ZM17.8867 15.7074C17.8867 16.0143 17.637 16.264 17.3301 16.264H13.927V11.3066C13.927 11.2447 13.9242 11.1835 13.9202 11.1226C14.0595 11.0848 14.2058 11.0643 14.3569 11.0643H16.2168C17.1376 11.0643 17.8867 11.8134 17.8867 12.7342V15.7074Z" fill="white"/>
<path d="M3.71312 4.69446C2.34939 4.69446 1.23993 5.80392 1.23993 7.16765C1.23989 8.53138 2.34939 9.64084 3.71312 9.64084C5.07682 9.64084 6.18631 8.53138 6.18631 7.16765C6.18631 5.80392 5.07685 4.69446 3.71312 4.69446ZM3.71308 8.52756C2.96321 8.52756 2.35317 7.91752 2.35317 7.16765C2.35317 6.41778 2.96321 5.80774 3.71308 5.80774C4.46295 5.80774 5.07299 6.41778 5.07299 7.16765C5.07299 7.91752 4.46295 8.52756 3.71308 8.52756Z" fill="white"/>
<path d="M9.50007 1.62268C7.67815 1.62268 6.19592 3.1049 6.19592 4.92682C6.19592 6.74875 7.67815 8.23097 9.50007 8.23097C11.322 8.23097 12.8042 6.74875 12.8042 4.92682C12.8042 3.10494 11.322 1.62268 9.50007 1.62268ZM9.50007 7.11769C8.29201 7.11769 7.3092 6.13488 7.3092 4.92682C7.3092 3.7188 8.29201 2.73596 9.50007 2.73596C10.7081 2.73596 11.6909 3.71877 11.6909 4.92682C11.6909 6.13488 10.7081 7.11769 9.50007 7.11769Z" fill="white"/>
<path d="M15.2869 4.69446C13.9232 4.69446 12.8137 5.80392 12.8137 7.16765C12.8138 8.53138 13.9232 9.64084 15.2869 9.64084C16.6506 9.64084 17.7601 8.53138 17.7601 7.16765C17.7601 5.80392 16.6506 4.69446 15.2869 4.69446ZM15.2869 8.52756C14.5371 8.52756 13.927 7.91752 13.927 7.16765C13.927 6.41778 14.5371 5.80774 15.2869 5.80774C16.0368 5.80774 16.6468 6.41778 16.6468 7.16765C16.6468 7.91752 16.0368 8.52756 15.2869 8.52756Z" fill="white"/>
</svg>
