<svg width="112" height="35" viewBox="0 0 112 35" fill="none" xmlns="http://www.w3.org/2000/svg">
<path d="M8.12 9.635V19.015C8.12 19.6683 8.27167 20.1467 8.575 20.45C8.90167 20.73 9.43833 20.87 10.185 20.87H12.46V25H9.38C5.25 25 3.185 22.9933 3.185 18.98V9.635H0.875V5.61H3.185V0.814998H8.12V5.61H12.46V9.635H8.12ZM19.8843 8.62C20.5143 7.59333 21.331 6.78833 22.3343 6.205C23.361 5.62167 24.5277 5.33 25.8343 5.33V10.475H24.5393C22.9993 10.475 21.8327 10.8367 21.0393 11.56C20.2693 12.2833 19.8843 13.5433 19.8843 15.34V25H14.9843V5.61H19.8843V8.62ZM26.8747 15.235C26.8747 13.275 27.2597 11.5367 28.0297 10.02C28.8231 8.50333 29.8847 7.33667 31.2147 6.52C32.5681 5.70333 34.0731 5.295 35.7297 5.295C37.1764 5.295 38.4364 5.58667 39.5097 6.17C40.6064 6.75333 41.4814 7.48833 42.1347 8.375V5.61H47.0697V25H42.1347V22.165C41.5047 23.075 40.6297 23.8333 39.5097 24.44C38.4131 25.0233 37.1414 25.315 35.6947 25.315C34.0614 25.315 32.5681 24.895 31.2147 24.055C29.8847 23.215 28.8231 22.0367 28.0297 20.52C27.2597 18.98 26.8747 17.2183 26.8747 15.235ZM42.1347 15.305C42.1347 14.115 41.9014 13.1 41.4347 12.26C40.9681 11.3967 40.3381 10.7433 39.5447 10.3C38.7514 9.83333 37.8997 9.6 36.9897 9.6C36.0797 9.6 35.2397 9.82167 34.4697 10.265C33.6997 10.7083 33.0697 11.3617 32.5797 12.225C32.1131 13.065 31.8797 14.0683 31.8797 15.235C31.8797 16.4017 32.1131 17.4283 32.5797 18.315C33.0697 19.1783 33.6997 19.8433 34.4697 20.31C35.2631 20.7767 36.1031 21.01 36.9897 21.01C37.8997 21.01 38.7514 20.7883 39.5447 20.345C40.3381 19.8783 40.9681 19.225 41.4347 18.385C41.9014 17.5217 42.1347 16.495 42.1347 15.305ZM74.9354 5.33C77.3154 5.33 79.2288 6.065 80.6754 7.535C82.1454 8.98167 82.8804 11.0117 82.8804 13.625V25H77.9804V14.29C77.9804 12.7733 77.5954 11.6183 76.8254 10.825C76.0554 10.0083 75.0054 9.6 73.6754 9.6C72.3454 9.6 71.2838 10.0083 70.4904 10.825C69.7204 11.6183 69.3354 12.7733 69.3354 14.29V25H64.4354V14.29C64.4354 12.7733 64.0504 11.6183 63.2804 10.825C62.5104 10.0083 61.4604 9.6 60.1304 9.6C58.7771 9.6 57.7038 10.0083 56.9104 10.825C56.1404 11.6183 55.7554 12.7733 55.7554 14.29V25H50.8554V5.61H55.7554V7.955C56.3854 7.13833 57.1904 6.49667 58.1704 6.03C59.1738 5.56333 60.2704 5.33 61.4604 5.33C62.9771 5.33 64.3304 5.65667 65.5204 6.31C66.7104 6.94 67.6321 7.85 68.2854 9.04C68.9154 7.92 69.8254 7.02167 71.0154 6.345C72.2288 5.66833 73.5354 5.33 74.9354 5.33ZM105.08 5.61L93.0752 34.17H87.8602L92.0602 24.51L84.2902 5.61H89.7852L94.7902 19.155L99.8652 5.61H105.08Z" fill="#1A1A1A"/>
<path d="M108.892 25.245C108.005 25.245 107.27 24.9767 106.687 24.44C106.127 23.88 105.847 23.1917 105.847 22.375C105.847 21.5583 106.127 20.8817 106.687 20.345C107.27 19.785 108.005 19.505 108.892 19.505C109.755 19.505 110.467 19.785 111.027 20.345C111.587 20.8817 111.867 21.5583 111.867 22.375C111.867 23.1917 111.587 23.88 111.027 24.44C110.467 24.9767 109.755 25.245 108.892 25.245Z" fill="#3F8CFF"/>
</svg>
