<svg width="128" height="39" viewBox="0 0 128 39" fill="none" xmlns="http://www.w3.org/2000/svg">
<path d="M8.28 10.44V21.16C8.28 21.9067 8.45333 22.4533 8.8 22.8C9.17333 23.12 9.78667 23.28 10.64 23.28H13.24V28H9.72C5 28 2.64 25.7067 2.64 21.12V10.44H1.49012e-08V5.84H2.64V0.359998H8.28V5.84H13.24V10.44H8.28ZM21.8678 9.28C22.5878 8.10667 23.5211 7.18667 24.6678 6.52C25.8411 5.85333 27.1745 5.52 28.6678 5.52V11.4H27.1878C25.4278 11.4 24.0945 11.8133 23.1878 12.64C22.3078 13.4667 21.8678 14.9067 21.8678 16.96V28H16.2678V5.84H21.8678V9.28ZM29.9997 16.84C29.9997 14.6 30.4397 12.6133 31.3197 10.88C32.2264 9.14667 33.4397 7.81333 34.9597 6.88C36.5064 5.94667 38.2264 5.48 40.1197 5.48C41.773 5.48 43.213 5.81333 44.4397 6.48C45.693 7.14667 46.693 7.98667 47.4397 9V5.84H53.0797V28H47.4397V24.76C46.7197 25.8 45.7197 26.6667 44.4397 27.36C43.1864 28.0267 41.733 28.36 40.0797 28.36C38.213 28.36 36.5064 27.88 34.9597 26.92C33.4397 25.96 32.2264 24.6133 31.3197 22.88C30.4397 21.12 29.9997 19.1067 29.9997 16.84ZM47.4397 16.92C47.4397 15.56 47.173 14.4 46.6397 13.44C46.1064 12.4533 45.3864 11.7067 44.4797 11.2C43.573 10.6667 42.5997 10.4 41.5597 10.4C40.5197 10.4 39.5597 10.6533 38.6797 11.16C37.7997 11.6667 37.0797 12.4133 36.5197 13.4C35.9864 14.36 35.7197 15.5067 35.7197 16.84C35.7197 18.1733 35.9864 19.3467 36.5197 20.36C37.0797 21.3467 37.7997 22.1067 38.6797 22.64C39.5864 23.1733 40.5464 23.44 41.5597 23.44C42.5997 23.44 43.573 23.1867 44.4797 22.68C45.3864 22.1467 46.1064 21.4 46.6397 20.44C47.173 19.4533 47.4397 18.28 47.4397 16.92ZM85.0691 5.52C87.7891 5.52 89.9757 6.36 91.6291 8.04C93.3091 9.69333 94.1491 12.0133 94.1491 15V28H88.5491V15.76C88.5491 14.0267 88.1091 12.7067 87.2291 11.8C86.3491 10.8667 85.1491 10.4 83.6291 10.4C82.1091 10.4 80.8957 10.8667 79.9891 11.8C79.1091 12.7067 78.6691 14.0267 78.6691 15.76V28H73.0691V15.76C73.0691 14.0267 72.6291 12.7067 71.7491 11.8C70.8691 10.8667 69.6691 10.4 68.1491 10.4C66.6024 10.4 65.3757 10.8667 64.4691 11.8C63.5891 12.7067 63.1491 14.0267 63.1491 15.76V28H57.5491V5.84H63.1491V8.52C63.8691 7.58667 64.7891 6.85333 65.9091 6.32C67.0557 5.78666 68.3091 5.52 69.6691 5.52C71.4024 5.52 72.9491 5.89333 74.3091 6.64C75.6691 7.36 76.7224 8.4 77.4691 9.76C78.1891 8.48 79.2291 7.45333 80.5891 6.68C81.9757 5.90667 83.4691 5.52 85.0691 5.52ZM119.663 5.84L105.943 38.48H99.9831L104.783 27.44L95.9031 5.84H102.183L107.903 21.32L113.703 5.84H119.663Z" fill="white"/>
<path d="M124.162 28.28C123.149 28.28 122.309 27.9733 121.642 27.36C121.002 26.72 120.682 25.9333 120.682 25C120.682 24.0667 121.002 23.2933 121.642 22.68C122.309 22.04 123.149 21.72 124.162 21.72C125.149 21.72 125.962 22.04 126.602 22.68C127.242 23.2933 127.562 24.0667 127.562 25C127.562 25.9333 127.242 26.72 126.602 27.36C125.962 27.9733 125.149 28.28 124.162 28.28Z" fill="#3F8CFF"/>
</svg>
